<?xml version="1.0" encoding="utf-8"?>
<!-- Generator: Adobe Illustrator 17.1.0, SVG Export Plug-In . SVG Version: 6.00 Build 0)  -->
<!DOCTYPE svg PUBLIC "-//W3C//DTD SVG 1.1//EN" "http://www.w3.org/Graphics/SVG/1.1/DTD/svg11.dtd">
<svg version="1.1" xmlns="http://www.w3.org/2000/svg" xmlns:xlink="http://www.w3.org/1999/xlink" x="0px" y="0px"
	 viewBox="0 0 60 60" enable-background="new 0 0 60 60" xml:space="preserve">
<g id="base">
</g>
<g id="sp_x5F_view">
</g>
<g id="sp_x5F_old">
</g>
<g id="sp_x5F_new">
</g>
<g id="sp_x5F_share">
</g>
<g id="sp_x5F_call">
</g>
<g id="sp_x5F_arrow_x5F_r">
</g>
<g id="sp_x5F_swipe_x5F_down">
</g>
<g id="sp_x5F_swipe_x5F_up">
</g>
<g id="sp_x5F_hand">
</g>
<g id="sp_x5F_close">
</g>
<g id="sp_x5F_blank">
</g>
<g id="sp_x5F_house">
</g>
<g id="sp_x5F_ranking">
</g>
<g id="sp_x5F_library">
</g>
<g id="sp_x5F_best">
	<path fill="#231815" d="M13.125,18.75c0,9.305,7.57,16.875,16.875,16.875s16.875-7.571,16.875-16.875V0h-33.75V18.75z M16.875,3.75
		h26.25v15c0,7.238-5.887,13.125-13.125,13.125S16.875,25.987,16.875,18.75V3.75z M30,28.125v-3.75
		c-3.102,0-5.625-2.523-5.625-5.625V9.375h-3.75v9.375C20.625,23.919,24.831,28.125,30,28.125z M31.875,46.608
		c3.226-0.839,5.625-3.749,5.625-7.234h-3.75c0,2.069-1.682,3.75-3.75,3.75s-3.75-1.681-3.75-3.75H22.5
		c0,3.485,2.399,6.395,5.625,7.234v9.641h-15V60h33.75v-3.75h-15V46.608z M50.625,3.75V7.5h5.625v1.875
		c0,3.102-2.523,5.625-5.625,5.625v3.75c5.169,0,9.375-4.206,9.375-9.375V3.75H50.625z M0,9.375c0,5.169,4.206,9.375,9.375,9.375V15
		C6.274,15,3.75,12.477,3.75,9.375V7.5h5.625V3.75H0V9.375z"/>
</g>
<g id="sp_x5F_latest">
</g>
<g id="genre_-">
</g>
<g id="genre_-_business">
</g>
<g id="genre_-_aggregate">
</g>
<g id="genre_-_idea">
</g>
<g id="genre_-_it">
</g>
<g id="genre_-_designer">
</g>
<g id="genre_-_engineer">
</g>
<g id="keyword">
</g>
<g id="library">
</g>
<g id="rankdown">
</g>
<g id="rankstay">
</g>
<g id="rankup">
</g>
<g id="question">
</g>
<g id="detail">
</g>
<g id="link">
</g>
<g id="entry">
</g>
<g id="facebookfont">
</g>
<g id="feedly">
</g>
<g id="rss">
</g>
<g id="archive">
</g>
<g id="fav2">
</g>
<g id="sort">
</g>
<g id="line">
</g>
<g id="hatebu">
</g>
<g id="gplus">
</g>
<g id="twitter">
</g>
<g id="facebook">
</g>
<g id="profile">
</g>
<g id="fav">
</g>
<g id="circlehatebu">
</g>
<g id="circletwitter">
</g>
<g id="circlefacebook">
</g>
<g id="retweet">
</g>
<g id="reply">
</g>
<g id="blank">
</g>
<g id="blockquote">
</g>
<g id="startpage">
</g>
<g id="category">
</g>
<g id="contact">
</g>
<g id="articles">
</g>
<g id="member">
</g>
<g id="span">
</g>
<g id="cost">
</g>
<g id="fanletter">
</g>
<g id="commentbox">
</g>
<g id="ranking">
</g>
<g id="search">
</g>
<g id="arrow_down">
</g>
<g id="arrrow_up">
</g>
<g id="arrow_left">
</g>
<g id="arrow_right">
</g>
</svg>
