<?xml version="1.0" encoding="utf-8"?>
<!-- Generator: Adobe Illustrator 17.1.0, SVG Export Plug-In . SVG Version: 6.00 Build 0)  -->
<!DOCTYPE svg PUBLIC "-//W3C//DTD SVG 1.1//EN" "http://www.w3.org/Graphics/SVG/1.1/DTD/svg11.dtd">
<svg version="1.1" xmlns="http://www.w3.org/2000/svg" xmlns:xlink="http://www.w3.org/1999/xlink" x="0px" y="0px"
	 viewBox="0 0 60 60" enable-background="new 0 0 60 60" xml:space="preserve">
<g id="base">
</g>
<g id="sp_x5F_view">
</g>
<g id="sp_x5F_old">
</g>
<g id="sp_x5F_new">
</g>
<g id="sp_x5F_share">
</g>
<g id="sp_x5F_call">
	<path fill-rule="evenodd" clip-rule="evenodd" fill="#231815" d="M25.991,19.047l4.526-2.141c2.028-0.959,2.894-3.38,1.935-5.408
		L28.11,2.32c-0.949-2.007-3.329-2.869-5.344-1.957l-0.001-0.007c-0.013,0.006-0.035,0.017-0.063,0.03l-6.425,3.039
		c-0.429,0.203-0.876,0.414-1.363,0.645c-17.911,8.473,8.367,63.431,26.049,55.067c0.477-0.226,0.927-0.438,1.363-0.645l6.425-3.039
		c0.037-0.018,0.063-0.03,0.063-0.03l-0.005-0.005c1.983-0.979,2.826-3.366,1.877-5.373l-4.341-9.178
		c-0.959-2.027-3.38-2.894-5.408-1.935l-6.425,3.039c-0.127,0.06-0.235,0.141-0.352,0.212
		C27.014,40.608,19.245,22.238,25.991,19.047z"/>
</g>
<g id="sp_x5F_arrow_x5F_r">
</g>
<g id="sp_x5F_swipe_x5F_down">
</g>
<g id="sp_x5F_swipe_x5F_up">
</g>
<g id="sp_x5F_hand">
</g>
<g id="sp_x5F_close">
</g>
<g id="sp_x5F_blank">
</g>
<g id="sp_x5F_house">
</g>
<g id="sp_x5F_ranking">
</g>
<g id="sp_x5F_library">
</g>
<g id="sp_x5F_best">
</g>
<g id="sp_x5F_latest">
</g>
<g id="genre_-">
</g>
<g id="genre_-_business">
</g>
<g id="genre_-_aggregate">
</g>
<g id="genre_-_idea">
</g>
<g id="genre_-_it">
</g>
<g id="genre_-_designer">
</g>
<g id="genre_-_engineer">
</g>
<g id="keyword">
</g>
<g id="library">
</g>
<g id="rankdown">
</g>
<g id="rankstay">
</g>
<g id="rankup">
</g>
<g id="question">
</g>
<g id="detail">
</g>
<g id="link">
</g>
<g id="entry">
</g>
<g id="facebookfont">
</g>
<g id="feedly">
</g>
<g id="rss">
</g>
<g id="archive">
</g>
<g id="fav2">
</g>
<g id="sort">
</g>
<g id="line">
</g>
<g id="hatebu">
</g>
<g id="gplus">
</g>
<g id="twitter">
</g>
<g id="facebook">
</g>
<g id="profile">
</g>
<g id="fav">
</g>
<g id="circlehatebu">
</g>
<g id="circletwitter">
</g>
<g id="circlefacebook">
</g>
<g id="retweet">
</g>
<g id="reply">
</g>
<g id="blank">
</g>
<g id="blockquote">
</g>
<g id="startpage">
</g>
<g id="category">
</g>
<g id="contact">
</g>
<g id="articles">
</g>
<g id="member">
</g>
<g id="span">
</g>
<g id="cost">
</g>
<g id="fanletter">
</g>
<g id="commentbox">
</g>
<g id="ranking">
</g>
<g id="search">
</g>
<g id="arrow_down">
</g>
<g id="arrrow_up">
</g>
<g id="arrow_left">
</g>
<g id="arrow_right">
</g>
</svg>
